<svg width="80" height="49" xmlns="http://www.w3.org/2000/svg" xmlns:xlink="http://www.w3.org/1999/xlink"><defs><path d="M7.85 17.46V3.43c0-.92-.03-1.15-.2-1.53-.15-.4-.5-.6-1.15-.66-.5-.02-.72-.23-.72-.6 0-.31.29-.52.8-.52h6.72c6.23 0 10.42 3.2 10.42 8.01 0 4.14-3.07 6.46-8.52 6.46-.87 0-1.81-.05-2.5-.17-.37-.06-.83-.11-.98-.11-.4 0-.57.2-.57.66v2.5c0 .91.03 1.14.2 1.52.14.4.49.63 1.15.66.49.02.72.23.72.6 0 .34-.26.52-.8.52H6.54c-.51 0-.77-.18-.77-.55 0-.34.23-.55.72-.57.66-.06.97-.2 1.15-.66.17-.3.2-.55.2-1.53zM13.1 1.47c-1.4 0-1.95.38-1.95 1.38v8.64c0 1.2.95 1.73 3.1 1.73 1.84 0 2.93-.32 3.96-1.1a5.15 5.15 0 0 0 1.92-4.27c0-3.88-2.78-6.38-7.03-6.38zm14.15 19.3h-4.22c-.54 0-.77-.18-.77-.55 0-.34.17-.52.72-.57.57-.06.91-.2 1.26-.66.29-.35.4-.58.77-1.53L31.67.76c.23-.55.3-.64.64-.64h1.95c.14 0 .31.06.37.12 0 .03.09.17.2.46l6.66 16.76c.38.95.49 1.18.78 1.53.31.4.69.6 1.26.66.55.05.72.23.72.6 0 .34-.23.52-.78.52H37.3c-.52 0-.77-.18-.77-.55 0-.34.23-.55.71-.57.78-.03 1.07-.26 1.07-.8 0-.3-.12-.75-.38-1.39l-.77-1.83c-.38-.86-.46-.92-1.3-.92h-7.23c-.4 0-.66.03-.77.14-.06.03-.18.26-.35.66l-.8 1.95c-.35.8-.4 1.12-.4 1.41 0 .52.28.72 1.03.78.46.02.72.23.72.6 0 .34-.29.52-.8.52zm1.35-7.9c0 .29.2.46.55.46l6.34-.06c.32 0 .55-.14.55-.4 0-.11-.03-.2-.06-.29L32.48 4c-.06-.17-.15-.29-.2-.29-.06 0-.18.12-.23.26l-3.42 8.67c-.03.06-.03.14-.03.23zm15.85 1.5l1-10.94c.09-.43.09-.78.09-.98 0-.78-.32-1.15-1.06-1.2-.52-.03-.75-.18-.75-.55 0-.37.29-.58.8-.58h5.17c.52 0 .78.2.78.58 0 .43-.09.46-.72.54-.43.06-.66.26-.8.66-.15.35-.18.58-.26 1.53l-.95 10.93c-.03.26-.03.52-.03.72 0 3.07 2.01 4.7 5.57 4.7 3.53 0 5.43-1.6 5.43-4.61 0-.18 0-.38-.03-.55l-.8-11.2a4.18 4.18 0 0 0-.24-1.52c-.14-.4-.4-.6-.89-.66-.6-.05-.71-.17-.71-.6 0-.31.28-.52.8-.52h3.39c.51 0 .8.2.8.58 0 .37-.14.49-.74.54-.6.06-.9.4-.9 1.18 0 .23.03.58.06 1l.8 10.97c.04.26.04.52.04.75 0 4.05-2.53 6.06-7.64 6.06-5.17 0-8.24-2.21-8.24-5.92 0-.31 0-.6.03-.92zm19.29 3.32V3.43c0-1.7-.23-2.1-1.32-2.19-.52-.05-.72-.23-.72-.6 0-.31.29-.52.8-.52h5.6c.55 0 .8.2.8.58 0 .37-.2.49-.71.54-.95.09-1.12.5-1.12 2.19v13.92c0 1.09.06 1.46.32 1.72.2.2.77.29 1.63.29h1.9c1.83 0 3.3-.23 4.16-.72.72-.4 1.9-1.35 2.44-2.12.26-.3.43-.43.6-.43.29 0 .52.23.52.48a1 1 0 0 1-.17.5l-2.36 3.81c-.26.4-.43.55-.69.55a.55.55 0 0 1-.37-.15l-.34-.26c-.26-.2-.43-.25-1.07-.25H62.51c-.55 0-.8-.18-.8-.55 0-.34.2-.55.71-.57 1.06-.1 1.32-.5 1.32-1.96z" id="a"/><path d="M1.91 29.95c0-1.7-.23-2.1-1.09-2.18-.57-.06-.74-.17-.74-.6 0-.32.25-.52.8-.52h5.31c.52 0 .78.14.78.57 0 .38-.18.5-.72.55-.83.09-1.06.46-1.06 2.18v4.34c0 .83.28 1.12 1.12 1.12h8.84c.8 0 1.09-.32 1.09-1.15v-4.3c0-1.7-.2-2.1-1.1-2.19-.54-.06-.71-.17-.71-.6 0-.32.29-.52.8-.52h5.34c.58 0 .8.2.8.57 0 .38-.16.5-.68.55-.92.09-1.1.46-1.1 2.18V44c0 .95.04 1.15.15 1.52.12.4.37.6.9.66.57.06.7.2.7.6 0 .35-.22.52-.77.52h-5.4c-.51 0-.77-.17-.77-.54 0-.38.17-.52.72-.58.89-.08 1.12-.49 1.12-2.18v-5.83c0-.86-.23-1.09-1.1-1.09l-8.86-.03c-.8 0-1.1.29-1.1 1.15V44c0 .95 0 1.15.12 1.52.17.4.4.6.95.66.54.06.72.2.72.6 0 .35-.26.52-.8.52H.81c-.54 0-.77-.17-.77-.54 0-.38.17-.52.72-.58.89-.08 1.14-.49 1.14-1.95V29.95zm59.21 16.23l12.5-17.66c.06-.09.1-.15.1-.23 0-.18-.35-.23-1.3-.23h-.26l-3.67.08c-1.9.06-3.8.8-4.74 2.01-.57.7-.8.95-1.15.95-.29 0-.43-.17-.43-.43 0-.09 0-.14.03-.17l2.35-4.14a.63.63 0 0 1 .52-.23c.14 0 .2.03.49.23.31.23.54.32 1.15.32l11.22-.03c.4 0 .69.2.69.49 0 .2-.09.4-.26.63L65.9 45.4c-.05.05-.05.11-.05.2 0 .17.45.23 1.92.23h.54l4-.09c2-.06 4.13-.89 4.93-1.98.84-1.1 1.12-1.4 1.47-1.4.31 0 .48.2.48.48 0 .09 0 .17-.08.23l-2.44 4.36c-.12.23-.37.35-.63.35-.09 0-.15 0-.2-.03-.06-.03-.18-.09-.32-.2-.29-.23-.43-.26-1.12-.26H61.31l-.13-.01-.24.01H54.5c-.55 0-.78-.17-.78-.54 0-.35.2-.55.69-.58.52-.03.78-.17.78-.4 0-.35-.26-.72-1.15-1.78l-3.02-3.5c-.86.05-1.49.08-1.95.08-.49 0-.98-.03-1.5-.08l-.82-.06c-.4 0-.52.11-.52.57V44c0 1.09 0 1.15.14 1.52.2.4.52.6 1.15.66.52.03.72.23.72.6 0 .35-.23.52-.78.52h-5.82c-.55 0-.8-.17-.8-.54 0-.35.2-.55.7-.58 1.13-.06 1.36-.46 1.36-2.18V29.95c0-1.7-.23-2.1-1.32-2.18-.55-.03-.75-.23-.75-.6 0-.32.29-.52.8-.52h7.44c6.57 0 10.82 2.9 10.82 7.32a5.6 5.6 0 0 1-1.37 3.73c-.95 1.12-1.76 1.52-3.94 2.16l3.65 4.13c.83.92 1.09 1.18 1.46 1.52a2.4 2.4 0 0 0 1.42.67zM23.67 44V29.95c0-.97-.02-1.18-.17-1.52-.17-.43-.46-.6-1.12-.66-.49-.03-.72-.23-.72-.6 0-.32.26-.52.78-.52h12.34c.5 0 .75-.06.92-.17l.29-.26c.14-.06.26-.12.37-.12.29 0 .38.06.66.52l2.04 3.39c.12.14.17.31.17.43 0 .26-.23.43-.48.43-.2 0-.46-.14-.75-.52a8.98 8.98 0 0 0-2.58-1.9 9.7 9.7 0 0 0-3.7-.57h-2.73c-1.76 0-1.99.23-1.99 1.96v3.76c0 .72.3.97 1 .97h2.5c.9 0 1.18-.08 1.41-.54l.2-.4a.61.61 0 0 1 .5-.23c.1 0 .22.03.28.11.03.03.14.17.34.49l1.96 3.13c.14.2.2.37.2.52 0 .28-.2.45-.46.45s-.49-.14-.86-.6a4.62 4.62 0 0 0-3.68-1.63h-2.44c-.66 0-.95.25-.95.91v7.15c0 1.72.3 1.98 1.96 1.98h3.96c1.7 0 3.44-.23 4.39-.6a7.06 7.06 0 0 0 3.01-2.47c.23-.37.44-.52.64-.52.31 0 .57.23.57.5 0 .1-.09.28-.23.5L39 47.36c-.25.46-.37.54-.71.54a.85.85 0 0 1-.43-.14l-.35-.23c-.23-.2-.37-.23-1.15-.23H22.44c-.55 0-.8-.17-.8-.54 0-.35.2-.55.71-.58.64-.06.95-.2 1.15-.66.15-.29.17-.57.17-1.52zm25-16.05c-1.94 0-2.4.32-2.4 1.47v8.35c0 .86.11 1.06.83 1.23.63.18 1.35.26 2.12.26 4.54 0 7-1.86 7-5.28 0-3.73-2.86-6.03-7.54-6.03z" id="b"/></defs><g fill="#000" fill-rule="evenodd"><g transform="translate(0 .49)"><use xlink:href="#a"/><use xlink:href="#a"/></g><g transform="rotate(180 39.62 37.24)"><use xlink:href="#b"/><use xlink:href="#b"/></g></g></svg>