<?xml version="1.0" encoding="UTF-8"?>
<svg width="32px" height="32px" viewBox="0 0 32 32" version="1.1" xmlns="http://www.w3.org/2000/svg" xmlns:xlink="http://www.w3.org/1999/xlink">
    <!-- Generator: Sketch 52.6 (67491) - http://www.bohemiancoding.com/sketch -->
    <title>mask-icon</title>
    <desc>Created with Sketch.</desc>
    <g id="mask-icon" stroke="none" stroke-width="1" fill="none" fill-rule="evenodd">
        <path d="M2.001752,21 L2.001752,10.6861314 C2.001752,9.93868613 1.97839399,9.75182482 1.838248,9.44817518 C1.72145968,9.12116788 1.12116788,8.95766423 0.583941606,8.91094891 C0.186861314,8.88759124 0,8.72408759 0,8.42043796 C0,8.16350365 0.233576642,8 0.654014599,8 L6.11970803,8 C11.1883212,8 14.99854,10.5927007 14.99854,14.5167883 C14.99854,17.880292 12.0992701,20.002263 7.66131387,20.002263 C6.96058394,20.002263 6.18978102,19.9555477 5.62919708,19.862117 C5.32554745,19.8154017 4.95182482,19.768686 4.8350365,19.768686 C4.5080292,19.768686 3.997883,19.9321894 3.997883,20.305912 L3.997883,22.318029 C3.997883,23.0654743 4.02124101,23.2523354 4.161387,23.555985 C4.27817532,23.8829923 4.92846715,24.0698543 5.46569343,24.093212 C5.86277372,24.1165697 6.04963504,24.2800734 6.04963504,24.583723 C6.04963504,24.864015 5.83941606,25.004161 5.39562044,25.004161 L0.630656934,25.004161 C0.210218978,25.004161 0,24.8640146 0,24.560365 C0,24.280073 0.186861314,24.1165697 0.583941606,24.093212 C1.12116788,24.0464967 1.69810201,23.9297076 1.838248,23.555985 C1.97839399,23.3224084 2.001752,21.7941606 2.001752,21 Z M5.95620438,9.09781022 C4.81167883,9.09781022 4,9.40145985 4,10.2189781 L4,17.479635 C4,18.4606569 5.13868613,18.881095 6.89051095,18.881095 C8.38540146,18.881095 9.2729927,18.3941606 10.1138686,17.7635036 C11.1182482,17.0160584 12.078832,15.7781022 12.078832,14.2832117 C12.078832,11.129927 9.41313869,9.09781022 5.95620438,9.09781022 Z M17,22.504891 L17,10.6861314 C17,9.3080292 16.9766419,8.9810219 16.275912,8.91094891 C15.8087587,8.86423358 15.668613,8.77080292 15.668613,8.42043796 C15.668613,8.16350365 15.8788324,8 16.322628,8 L19.6437956,8 C20.0642336,8 20.2744526,8.11678832 20.2744526,8.46715328 C20.2744526,8.77080292 20.1343066,8.86423358 19.6905109,8.91094891 C19.0131387,8.9810219 18.996277,9.28467153 18.996277,10.6861314 L18.996277,14.2131387 C18.996277,14.8905109 19.2298537,15.004088 19.907226,15.004088 L26.9313869,15.004088 C27.5854015,15.004088 28,14.8671533 28,14.189781 L28,10.6861314 C28,9.3080292 27.6554745,8.9810219 26.9313869,8.91094891 C26.4875912,8.86423358 26.3474453,8.77080292 26.3474453,8.42043796 C26.3474453,8.16350365 26.5810219,8 27.0014599,8 L30.795985,8 C31.2631383,8 31.45,8.16350365 31.45,8.46715328 C31.45,8.77080292 31.309854,8.86423358 30.889416,8.91094891 C30.1419707,8.9810219 30.001825,9.28467153 30.001825,10.6861314 L30.001825,22.318029 C30.001825,23.0888319 30.0251823,23.2523354 30.118613,23.555985 C30.2120437,23.8829923 30.422263,24.0464967 30.842701,24.093212 C31.3098543,24.1399273 31.426642,24.2567157 31.426642,24.583723 C31.426642,24.864015 31.2397806,25.004161 30.795985,25.004161 L26.9547445,25.004161 C26.5343066,25.004161 26.3240876,24.8640146 26.3240876,24.560365 C26.3240876,24.2567154 26.4642336,24.1399273 26.9080292,24.093212 C27.6321168,24.023139 28,23.6961312 28,22.318029 L28,18.006423 C28,17.3056931 27.6321168,16.998832 26.9313869,16.998832 L19.883869,16.975474 C19.2298544,16.975474 18.996277,17.3290511 18.996277,18.029781 L18.996277,22.318029 C18.996277,23.0888319 18.9962773,23.2523354 19.089708,23.555985 C19.229854,23.8829923 19.2467153,24.0464967 19.6905109,24.093212 C20.1343066,24.1399273 20.2744526,24.2567157 20.2744526,24.583723 C20.2744526,24.864015 20.0642336,25.004161 19.620438,25.004161 L16.275912,25.004161 C15.8321164,25.004161 15.645255,24.8640146 15.645255,24.560365 C15.645255,24.2567154 15.7854014,24.1399273 16.229197,24.093212 C16.9532846,24.023139 17,23.6961319 17,22.504891 Z" id="hinted" fill="#000000"></path>
    </g>
</svg>